
<!-- Generator: visioncortex VTracer 0.6.4 -->
<svg version="1.1" xmlns="http://www.w3.org/2000/svg" viewBox="0 0 736 552" preserveAspectRatio="xMidYMid meet">
<path d="M0 0 C242.88 0 485.76 0 736 0 C736 182.16 736 364.32 736 552 C493.12 552 250.24 552 0 552 C0 369.84 0 187.68 0 0 Z " fill="#5FA679" transform="translate(0,0)"/>
<path d="M0 0 C1.65 0 3.3 0 5 0 C5 182.16 5 364.32 5 552 C3.35 552 1.7 552 0 552 C0 369.84 0 187.68 0 0 Z " fill="#6CAF85" transform="translate(731,0)"/>
<path d="M0 0 C3.94 2.978 6.797 6.077 8.375 10.812 C8.375 13.123 8.375 15.433 8.375 17.812 C14.645 17.812 20.915 17.812 27.375 17.812 C27.375 18.803 27.375 19.792 27.375 20.812 C21.105 20.812 14.835 20.812 8.375 20.812 C8.045 23.782 7.715 26.752 7.375 29.812 C4.458 35.539 0.466 38.782 -5.625 40.812 C-24.809 42.352 -45.097 33.005 -59.625 20.812 C-59.265 18.183 -58.85 17.027 -56.902 15.172 C-42.597 5.333 -17.191 -10.06 0 0 Z " fill="#DFF6DF" transform="translate(468.625,227.1875)"/>
<path d="M0 0 C3 1 3 1 4 3 C4.853 2.783 4.853 2.783 5.723 2.562 C13.161 0.774 19.163 -0.153 26.078 3.68 C32.277 7.938 35.621 13.671 37 21 C38.054 30.509 36.339 38.991 31 47 C31.257 49.029 31.257 49.029 32 51 C32.33 51.99 32.66 52.98 33 54 C31.68 54 30.36 54 29 54 C28.67 53.34 28.34 52.68 28 52 C26.716 52.238 26.716 52.238 25.406 52.48 C18.642 53.512 11.687 54.32 5.438 51.25 C4.633 50.507 3.829 49.765 3 49 C2.278 48.402 1.556 47.804 0.812 47.188 C-4.999 40.174 -5.505 31.693 -5 23 C-4.227 16.893 -2.459 13.128 1 8 C0.934 5.817 0.934 5.817 0 4 C-0.33 3.01 -0.66 2.02 -1 1 C-0.67 0.67 -0.34 0.34 0 0 Z " fill="#60A579" transform="translate(365,219)"/>
<path d="M0 0 C24.861 0 24.861 0 30.977 5.91 C33.003 10.048 32.486 14.519 32 19 C30.318 23.248 28.102 25.051 24 27 C23.01 27 22.02 27 21 27 C21.543 28.085 22.085 29.171 22.645 30.289 C26.957 38.914 26.957 38.914 28.002 41.013 C28.907 42.815 29.833 44.608 30.762 46.398 C32 49 32 49 32 51 C30.146 50.791 30.146 50.791 28 50 C26.742 47.975 26.742 47.975 25.66 45.344 C21.562 34.57 21.562 34.57 13.391 27.387 C9.427 27.05 9.427 27.05 4 28 C4 35.59 4 43.18 4 51 C2.68 51 1.36 51 0 51 C0 34.17 0 17.34 0 0 Z " fill="#5FA579" transform="translate(320,221)"/>
<path d="M0 0 C3.042 2.689 4.404 4.523 5.688 8.375 C5.688 10.685 5.688 12.995 5.688 15.375 C-13.783 15.375 -33.252 15.375 -53.312 15.375 C-52.983 14.715 -52.652 14.055 -52.312 13.375 C-51.652 13.375 -50.993 13.375 -50.312 13.375 C-50.312 12.715 -50.312 12.055 -50.312 11.375 C-47.004 9.762 -43.69 8.161 -40.375 6.562 C-39.449 6.111 -38.523 5.659 -37.568 5.193 C-26.529 -0.113 -12.047 -6.139 0 0 Z " fill="#95DF6D" transform="translate(468.3125,229.625)"/>
<path d="M0 0 C19.14 0 38.28 0 58 0 C56.714 10.286 56.714 10.286 51.688 15.312 C45.67 18.962 37.332 17.643 30.762 16.375 C20.184 13.424 9.116 8.188 0 2 C0 1.34 0 0.68 0 0 Z " fill="#94DF6D" transform="translate(416,248)"/>
<path d="M0 0 C1.9 0.283 1.9 0.283 4 1 C5.259 3.735 6.223 6.276 7.129 9.129 C7.405 9.952 7.68 10.775 7.965 11.623 C8.846 14.265 9.705 16.913 10.562 19.562 C11.429 22.185 12.3 24.806 13.171 27.427 C13.712 29.059 14.248 30.691 14.781 32.326 C15.991 36.033 17.256 39.687 18.687 43.316 C20 47 20 47 20 51 C19.01 51 18.02 51 17 51 C16.325 49.42 15.66 47.836 15 46.25 C14.629 45.368 14.257 44.487 13.875 43.578 C13 41 13 41 13 37 C5.41 37 -2.18 37 -10 37 C-10.33 38.98 -10.66 40.96 -11 43 C-11.88 45.727 -12.943 48.334 -14 51 C-14.99 51 -15.98 51 -17 51 C-15.619 44.146 -13.657 37.707 -11.312 31.125 C-10.789 29.639 -10.789 29.639 -10.256 28.123 C-6.931 18.714 -3.491 9.348 0 0 Z " fill="#DDF4E5" transform="translate(359,281)"/>
<path d="M0 0 C0.66 0 1.32 0 2 0 C2.393 0.705 2.785 1.41 3.19 2.136 C5 5.383 6.812 8.629 8.625 11.875 C9.242 12.984 9.86 14.092 10.496 15.234 C11.108 16.33 11.721 17.426 12.352 18.555 C13.261 20.184 13.261 20.184 14.188 21.847 C16.349 25.608 18.661 29.259 21.044 32.883 C22 35 22 35 21.78 37.214 C21 39 21 39 19 40 C13.567 40.496 8.638 40.685 3.562 38.562 C-2.494 32.506 -5.119 25.703 -5.25 17.25 C-5.2 10.459 -3.801 5.702 0 0 Z " fill="#63A67B" transform="translate(368,229)"/>
<path d="M0 0 C1.32 0 2.64 0 4 0 C4.204 0.996 4.204 0.996 4.411 2.013 C5.042 5.092 5.677 8.171 6.312 11.25 C6.54 12.351 6.767 13.453 7.001 14.588 C8.152 20.118 9.355 25.605 10.812 31.062 C11.899 35.194 12.291 38.739 12 43 C12.66 43 13.32 43 14 43 C14.11 42.412 14.221 41.823 14.334 41.217 C15.617 34.571 17.208 28.042 18.938 21.5 C19.19 20.532 19.442 19.564 19.701 18.566 C21.336 12.336 23.106 6.157 25 0 C26.32 0 27.64 0 29 0 C30.273 4.27 31.543 8.541 32.812 12.812 C33.169 14.008 33.525 15.204 33.893 16.436 C35.544 21.994 37.183 27.557 38.762 33.137 C39.002 33.983 39.243 34.83 39.491 35.702 C40 38 40 38 40 42 C40.66 42 41.32 42 42 42 C42.037 41.417 42.075 40.835 42.113 40.234 C42.578 34.444 43.622 29.048 45.105 23.438 C46.378 18.546 47.505 13.623 48.642 8.699 C49.328 5.751 50.042 2.874 51 0 C51.99 0 52.98 0 54 0 C52.676 6.843 51.203 13.647 49.682 20.448 C47.408 30.622 45.207 40.812 43 51 C41.68 51 40.36 51 39 51 C37.753 46.323 36.508 41.646 35.265 36.968 C34.842 35.38 34.42 33.793 33.996 32.205 C29.666 15.971 29.666 15.971 28 8 C27.34 8 26.68 8 26 8 C25.689 9.263 25.689 9.263 25.371 10.551 C22.018 24.061 18.507 37.529 15 51 C13.68 51 12.36 51 11 51 C7.056 34.055 3.474 17.046 0 0 Z " fill="#E8F8EC" transform="translate(283,282)"/>
<path d="M0 0 C3 1 3 1 4 3 C4.853 2.783 4.853 2.783 5.723 2.562 C13.161 0.774 19.163 -0.153 26.078 3.68 C32.277 7.938 35.621 13.671 37 21 C38.054 30.509 36.339 38.991 31 47 C31.257 49.029 31.257 49.029 32 51 C32.33 51.99 32.66 52.98 33 54 C31.68 54 30.36 54 29 54 C28.67 53.34 28.34 52.68 28 52 C26.716 52.238 26.716 52.238 25.406 52.48 C18.642 53.512 11.687 54.32 5.438 51.25 C4.633 50.507 3.829 49.765 3 49 C2.278 48.402 1.556 47.804 0.812 47.188 C-4.999 40.174 -5.505 31.693 -5 23 C-4.227 16.893 -2.459 13.128 1 8 C0.934 5.817 0.934 5.817 0 4 C-0.33 3.01 -0.66 2.02 -1 1 C-0.67 0.67 -0.34 0.34 0 0 Z M7 7 C8.367 11.577 10.232 15.442 12.625 19.57 C12.973 20.174 13.32 20.777 13.678 21.399 C14.78 23.311 15.89 25.218 17 27.125 C18.109 29.04 19.216 30.956 20.322 32.872 C21.324 34.607 22.33 36.339 23.336 38.071 C24.634 40.355 25.861 42.634 27 45 C29.996 44.32 29.996 44.32 31.168 42.426 C34.84 34.814 35.534 26.456 33.234 18.277 C30.957 12.863 28.196 8.415 23.188 5.188 C16.948 2.863 12.667 3.682 7 7 Z M3 10 C2.361 11.072 1.721 12.145 1.062 13.25 C0.703 13.853 0.343 14.457 -0.027 15.078 C-3.162 21.271 -2.997 29.255 -1.246 35.832 C0.725 40.987 2.928 46.049 7.746 49.109 C10.619 50.244 12.98 50.265 16.062 50.25 C17.627 50.258 17.627 50.258 19.223 50.266 C22.211 50.201 22.211 50.201 25 48 C24.455 42.984 22.081 39.395 19.5 35.188 C18.595 33.683 17.691 32.178 16.789 30.672 C16.328 29.904 15.867 29.137 15.392 28.346 C13.157 24.578 11.013 20.761 8.875 16.938 C8.485 16.241 8.095 15.545 7.693 14.827 C6.794 13.219 5.897 11.61 5 10 C4.34 10 3.68 10 3 10 Z " fill="#E6F8ED" transform="translate(365,219)"/>
<path d="M0 0 C24.861 0 24.861 0 30.977 5.91 C33.003 10.048 32.486 14.519 32 19 C30.318 23.248 28.102 25.051 24 27 C23.01 27 22.02 27 21 27 C21.543 28.085 22.085 29.171 22.645 30.289 C26.957 38.914 26.957 38.914 28.002 41.013 C28.907 42.815 29.833 44.608 30.762 46.398 C32 49 32 49 32 51 C30.146 50.791 30.146 50.791 28 50 C26.742 47.975 26.742 47.975 25.66 45.344 C21.562 34.57 21.562 34.57 13.391 27.387 C9.427 27.05 9.427 27.05 4 28 C4 35.59 4 43.18 4 51 C2.68 51 1.36 51 0 51 C0 34.17 0 17.34 0 0 Z M4 3 C4 10.26 4 17.52 4 25 C6.681 25.062 9.363 25.124 12.125 25.188 C13.374 25.228 13.374 25.228 14.649 25.27 C19.503 25.324 22.817 24.727 27 22 C29.82 17.77 29.792 13.968 29 9 C26.473 5.654 24.961 4.32 21 3 C19.665 2.92 18.326 2.892 16.988 2.902 C16.305 2.905 15.623 2.907 14.919 2.91 C14.059 2.919 13.199 2.928 12.312 2.938 C9.569 2.958 6.826 2.979 4 3 Z " fill="#E8FAED" transform="translate(320,221)"/>
<path d="M0 0 C10.56 0 21.12 0 32 0 C30.904 4.383 28.962 7.564 26.562 11.312 C26.117 12.016 25.672 12.72 25.213 13.444 C20.978 20.104 16.609 26.672 12.199 33.217 C10.248 36.118 8.312 39.028 6.375 41.938 C5.261 43.608 4.148 45.279 3 47 C16.86 47.495 16.86 47.495 31 48 C31 48.99 31 49.98 31 51 C20.11 51 9.22 51 -2 51 C-1.025 46.127 -0.04 44.155 2.684 40.168 C3.055 39.618 3.427 39.069 3.81 38.502 C4.603 37.33 5.4 36.161 6.2 34.994 C8.27 31.973 10.315 28.935 12.363 25.898 C12.766 25.303 13.169 24.707 13.584 24.093 C18.25 17.179 22.636 10.109 27 3 C18.09 3 9.18 3 0 3 C0 2.01 0 1.02 0 0 Z " fill="#E3F8E9" transform="translate(241,221)"/>
<path d="M0 0 C0.522 0.289 1.044 0.577 1.582 0.875 C1.252 1.865 0.922 2.855 0.582 3.875 C-5.168 2 -5.168 2 -7.418 0.875 C-9.207 0.753 -11 0.7 -12.793 0.688 C-13.749 0.673 -14.706 0.659 -15.691 0.645 C-18.481 0.88 -20.086 1.358 -22.418 2.875 C-23.562 5.162 -23.683 6.704 -23.793 9.25 C-23.842 10.021 -23.891 10.792 -23.941 11.586 C-23.148 15.054 -21.351 15.964 -18.418 17.875 C-16.114 18.942 -13.778 19.939 -11.418 20.875 C-6.175 22.954 -1.568 25.009 1.895 29.625 C3.448 34.71 3.251 38.511 0.957 43.188 C-2.534 47.138 -5.094 48.599 -10.379 49.227 C-18.049 49.566 -23.186 48.384 -29.418 43.875 C-29.418 43.215 -29.418 42.555 -29.418 41.875 C-26.814 42.321 -24.541 42.821 -22.117 43.891 C-16.361 45.99 -9.788 45.878 -4.168 43.5 C-1.863 40.042 -1.816 37.398 -1.754 33.312 C-2.714 29.79 -4.384 28.836 -7.418 26.875 C-9.702 25.831 -12.017 24.854 -14.355 23.938 C-19.438 21.864 -23.612 19.898 -27.418 15.875 C-28.624 12.256 -28.741 9.683 -28.418 5.875 C-26.647 2.334 -25.045 0.334 -21.855 -2 C-14.033 -4.56 -7.271 -3.667 0 0 Z " fill="#E4F8E6" transform="translate(415.41796875,284.125)"/>
<path d="M0 0 C9.24 0 18.48 0 28 0 C28 0.99 28 1.98 28 3 C19.75 3 11.5 3 3 3 C3.33 9.27 3.66 15.54 4 22 C10.93 22.495 10.93 22.495 18 23 C18 23.66 18 24.32 18 25 C13.05 25 8.1 25 3 25 C3 32.59 3 40.18 3 48 C11.58 48 20.16 48 29 48 C29 48.99 29 49.98 29 51 C19.43 51 9.86 51 0 51 C0 34.17 0 17.34 0 0 Z " fill="#DAF0E1" transform="translate(283,221)"/>
<path d="M0 0 C9.24 0 18.48 0 28 0 C28 0.99 28 1.98 28 3 C19.75 3 11.5 3 3 3 C3 9.27 3 15.54 3 22 C7.95 22 12.9 22 18 22 C18 22.99 18 23.98 18 25 C13.05 25 8.1 25 3 25 C3 32.59 3 40.18 3 48 C11.25 48 19.5 48 28 48 C28 48.66 28 49.32 28 50 C18.76 50 9.52 50 0 50 C0 33.5 0 17 0 0 Z " fill="#F1FEF7" transform="translate(467,282)"/>
<path d="M0 0 C2.323 2.323 2.871 4.031 3.945 7.121 C4.3 8.139 4.654 9.157 5.02 10.205 C5.384 11.272 5.749 12.338 6.125 13.438 C6.684 15.032 6.684 15.032 7.254 16.658 C10 24.61 10 24.61 10 28 C3.73 28 -2.54 28 -9 28 C-8.25 24.251 -7.408 21.049 -6.152 17.48 C-5.616 15.948 -5.616 15.948 -5.068 14.385 C-4.695 13.33 -4.322 12.275 -3.938 11.188 C-3.56 10.113 -3.183 9.039 -2.795 7.932 C-1.866 5.287 -0.935 2.643 0 0 Z " fill="#6BA37F" transform="translate(360,287)"/>
<path d="M0 0 C7.771 -0.023 15.542 -0.041 23.314 -0.052 C26.922 -0.057 30.53 -0.064 34.139 -0.075 C37.621 -0.086 41.103 -0.092 44.584 -0.095 C46.56 -0.098 48.536 -0.105 50.512 -0.113 C51.713 -0.113 52.914 -0.113 54.152 -0.114 C55.211 -0.116 56.27 -0.118 57.361 -0.12 C60 0 60 0 63 1 C62.731 7.052 62.091 11.246 58 16 C51.064 21.237 45.462 21.559 37 21 C26.068 19.072 15.908 14.234 6.312 8.812 C5.7 8.467 5.087 8.122 4.456 7.767 C0.126 5.253 0.126 5.253 -1 3 C-0.67 2.01 -0.34 1.02 0 0 Z M2 1 C2 1.66 2 2.32 2 3 C11.741 8.807 21.092 13.698 32 17 C32.975 17.296 32.975 17.296 33.969 17.598 C39.979 18.788 46.924 19.323 52.625 16.871 C55.937 14.539 57.71 12.593 59.5 8.938 C60.14 5.675 60.14 5.675 60 1 C40.86 1 21.72 1 2 1 Z " fill="#E1F6E3" transform="translate(414,247)"/>
<path d="M0 0 C11.55 0 23.1 0 35 0 C35 0.99 35 1.98 35 3 C29.72 3 24.44 3 19 3 C19 18.51 19 34.02 19 50 C18.01 50 17.02 50 16 50 C16 34.49 16 18.98 16 3 C10.72 3 5.44 3 0 3 C0 2.01 0 1.02 0 0 Z " fill="#E6FAEC" transform="translate(423,282)"/>
<path d="M0 0 C0.99 0 1.98 0 3 0 C1.676 6.843 0.203 13.647 -1.318 20.448 C-3.592 30.622 -5.793 40.812 -8 51 C-9.32 51 -10.64 51 -12 51 C-13.171 46.709 -14.336 42.417 -15.5 38.125 C-15.834 36.902 -16.168 35.678 -16.512 34.418 C-16.828 33.251 -17.143 32.085 -17.469 30.883 C-17.762 29.804 -18.055 28.725 -18.357 27.614 C-19 25 -19 25 -19 23 C-18.34 23 -17.68 23 -17 23 C-16.67 22.01 -16.34 21.02 -16 20 C-15.16 22.915 -14.328 25.832 -13.5 28.75 C-13.262 29.575 -13.023 30.4 -12.777 31.25 C-12.439 32.449 -12.439 32.449 -12.094 33.672 C-11.884 34.405 -11.675 35.138 -11.459 35.894 C-11 38 -11 38 -11 42 C-10.34 42 -9.68 42 -9 42 C-8.963 41.417 -8.925 40.835 -8.887 40.234 C-8.422 34.444 -7.378 29.048 -5.895 23.438 C-4.622 18.546 -3.495 13.623 -2.358 8.699 C-1.672 5.751 -0.958 2.874 0 0 Z " fill="#DFF4E7" transform="translate(334,282)"/>
<path d="M0 0 C3.042 2.689 4.404 4.523 5.688 8.375 C5.688 10.685 5.688 12.995 5.688 15.375 C-13.783 15.375 -33.252 15.375 -53.312 15.375 C-52.983 14.715 -52.652 14.055 -52.312 13.375 C-51.652 13.375 -50.993 13.375 -50.312 13.375 C-50.312 12.715 -50.312 12.055 -50.312 11.375 C-48.993 11.045 -47.673 10.715 -46.312 10.375 C-46.312 11.035 -46.312 11.695 -46.312 12.375 C-29.483 12.705 -12.652 13.035 4.688 13.375 C4.688 12.385 4.688 11.395 4.688 10.375 C4.028 10.375 3.368 10.375 2.688 10.375 C2.192 7.405 2.192 7.405 1.688 4.375 C-5.243 4.375 -12.173 4.375 -19.312 4.375 C-18.983 3.715 -18.653 3.055 -18.312 2.375 C-15.371 1.961 -15.371 1.961 -11.75 1.75 C-10.552 1.675 -9.355 1.6 -8.121 1.523 C-7.194 1.474 -6.267 1.425 -5.312 1.375 C-7.153 -0.465 -10.032 0.201 -12.5 0.188 C-13.628 0.173 -14.756 0.159 -15.918 0.145 C-19.333 0.231 -19.333 0.231 -22.488 1.449 C-25.381 2.398 -26.528 2.446 -29.312 1.375 C-20.964 -2.203 -8.534 -4.349 0 0 Z " fill="#9ED681" transform="translate(468.3125,229.625)"/>
<path d="M0 0 C19.14 0 38.28 0 58 0 C56.714 10.286 56.714 10.286 51.688 15.312 C45.67 18.962 37.332 17.643 30.762 16.375 C20.184 13.424 9.116 8.188 0 2 C0 1.34 0 0.68 0 0 Z M6 1 C6.33 1.99 6.66 2.98 7 4 C7.66 4 8.32 4 9 4 C9 4.66 9 5.32 9 6 C11.31 6.33 13.62 6.66 16 7 C16 7.99 16 8.98 16 10 C16.71 10.133 17.421 10.266 18.152 10.402 C19.071 10.579 19.991 10.756 20.938 10.938 C21.854 11.112 22.771 11.286 23.715 11.465 C26 12 26 12 27 13 C28.666 13.041 30.334 13.043 32 13 C32 13.66 32 14.32 32 15 C37.28 15 42.56 15 48 15 C48.33 14.34 48.66 13.68 49 13 C49.639 12.876 50.279 12.752 50.938 12.625 C53.12 12.18 53.12 12.18 54.312 10.312 C55.215 7.278 54.693 5.051 54 2 C54.99 1.67 55.98 1.34 57 1 C55.35 1 53.7 1 52 1 C52 2.98 52 4.96 52 7 C51.34 7 50.68 7 50 7 C50 5.02 50 3.04 50 1 C35.48 1 20.96 1 6 1 Z " fill="#99D677" transform="translate(416,248)"/>
<path d="M0 0 C0.33 0 0.66 0 1 0 C1 6.6 1 13.2 1 20 C1.66 20 2.32 20 3 20 C3 14.39 3 8.78 3 3 C3.33 3 3.66 3 4 3 C4 10.26 4 17.52 4 25 C8.62 25 13.24 25 18 25 C18 25.33 18 25.66 18 26 C13.71 26 9.42 26 5 26 C4.67 34.25 4.34 42.5 4 51 C2.68 51 1.36 51 0 51 C0 34.17 0 17.34 0 0 Z " fill="#C8E2D1" transform="translate(320,221)"/>
<path d="M0 0 C3.992 2.341 3.992 2.341 5.773 3.984 C5.773 4.974 5.773 5.964 5.773 6.984 C3.463 6.984 1.153 6.984 -1.227 6.984 C-1.887 8.304 -2.547 9.624 -3.227 10.984 C-3.887 10.984 -4.547 10.984 -5.227 10.984 C-5.227 10.324 -5.227 9.664 -5.227 8.984 C-5.887 8.984 -6.547 8.984 -7.227 8.984 C-6.948 9.912 -6.948 9.912 -6.664 10.859 C-6.227 12.984 -6.227 12.984 -7.227 14.984 C-7.887 14.984 -8.547 14.984 -9.227 14.984 C-10.26 13.221 -11.278 11.448 -12.289 9.672 C-12.858 8.686 -13.426 7.7 -14.012 6.684 C-15.227 3.984 -15.227 3.984 -14.227 0.984 C-9.658 -1.569 -4.844 -2.209 0 0 Z " fill="#66A77D" transform="translate(387.2265625,224.015625)"/>
<path d="M0 0 C2.02 5.335 -1.03 9.985 -3 15 C3.93 15 10.86 15 18 15 C18 15.66 18 16.32 18 17 C15.117 17.961 13.323 18.117 10.332 18.098 C9.439 18.094 8.547 18.091 7.627 18.088 C6.234 18.075 6.234 18.075 4.812 18.062 C3.872 18.058 2.932 18.053 1.963 18.049 C-0.358 18.037 -2.679 18.021 -5 18 C-5.133 18.9 -5.266 19.8 -5.402 20.727 C-6.14 24.769 -7.488 28.186 -9 32 C-9.99 32 -10.98 32 -12 32 C-10.684 25.487 -8.886 19.408 -6.562 13.188 C-6.263 12.355 -5.963 11.523 -5.654 10.666 C-4.187 6.697 -2.868 3.201 0 0 Z " fill="#E5F9EA" transform="translate(354,300)"/>
<path d="M0 0 C1.875 0.125 1.875 0.125 4 1 C6.894 4.411 7.541 7.547 7.348 12.008 C6.561 16.516 4.082 19.168 0.562 21.875 C-5.768 23.874 -12.585 24.351 -18.844 21.875 C-20.989 20.68 -23.011 19.439 -25 18 C-25 17.34 -25 16.68 -25 16 C-22.396 16.446 -20.123 16.946 -17.699 18.016 C-11.943 20.115 -5.37 20.003 0.25 17.625 C2.893 13.66 2.89 9.629 2 5 C0.566 2.725 0.566 2.725 -1 1 C-0.67 0.67 -0.34 0.34 0 0 Z " fill="#D7F0DF" transform="translate(411,310)"/>
<path d="M0 0 C1.32 0 2.64 0 4 0 C4.204 0.996 4.204 0.996 4.411 2.013 C5.042 5.092 5.677 8.171 6.312 11.25 C6.54 12.351 6.767 13.453 7.001 14.588 C8.152 20.118 9.355 25.605 10.812 31.062 C11.899 35.194 12.291 38.739 12 43 C12.66 43.33 13.32 43.66 14 44 C13.01 44.495 13.01 44.495 12 45 C12 46.65 12 48.3 12 50 C13.485 49.505 13.485 49.505 15 49 C15 49.66 15 50.32 15 51 C13.68 51 12.36 51 11 51 C7.056 34.055 3.474 17.046 0 0 Z " fill="#DFF7E9" transform="translate(283,282)"/>
<path d="M0 0 C0 0.66 0 1.32 0 2 C19.47 2 38.94 2 59 2 C59 2.66 59 3.32 59 4 C39.2 4 19.4 4 -1 4 C-1 4.99 -1 5.98 -1 7 C-3.475 6.01 -3.475 6.01 -6 5 C-5.625 3.062 -5.625 3.062 -5 1 C-3 0 -3 0 0 0 Z " fill="#EBFED9" transform="translate(415,243)"/>
<path d="M0 0 C0.33 0.66 0.66 1.32 1 2 C-1.31 5.63 -3.62 9.26 -6 13 C7.86 13.495 7.86 13.495 22 14 C22 14.99 22 15.98 22 17 C11.11 17 0.22 17 -11 17 C-10.068 12.34 -9.117 10.14 -6.625 6.25 C-6.019 5.286 -5.413 4.322 -4.789 3.328 C-3 1 -3 1 0 0 Z " fill="#E5F7EA" transform="translate(250,255)"/>
<path d="M0 0 C0.99 0.33 1.98 0.66 3 1 C5.393 1.226 7.789 1.408 10.188 1.562 C12.096 1.688 12.096 1.688 14.043 1.816 C15.019 1.877 15.995 1.938 17 2 C17 2.66 17 3.32 17 4 C12.05 4 7.1 4 2 4 C2 11.59 2 19.18 2 27 C10.58 27 19.16 27 28 27 C28 27.66 28 28.32 28 29 C18.76 29 9.52 29 0 29 C0 19.43 0 9.86 0 0 Z " fill="#F3FEF6" transform="translate(284,242)"/>
<path d="M0 0 C2.438 0.812 2.438 0.812 5 2 C5.33 2.99 5.66 3.98 6 5 C7.32 4.34 8.64 3.68 10 3 C10 3.99 10 4.98 10 6 C9.01 6.66 8.02 7.32 7 8 C6.67 8.99 6.34 9.98 6 11 C6.928 11.433 6.928 11.433 7.875 11.875 C10 13 10 13 12 15 C11.67 15.99 11.34 16.98 11 18 C10.34 17.67 9.68 17.34 9 17 C9 16.34 9 15.68 9 15 C7.02 14.34 5.04 13.68 3 13 C3.062 13.949 3.124 14.898 3.188 15.875 C3.126 16.906 3.064 17.938 3 19 C0 21 0 21 -3 21 C-2.695 17.687 -2.38 14.375 -2.062 11.062 C-1.975 10.117 -1.888 9.171 -1.799 8.197 C-1.712 7.298 -1.625 6.399 -1.535 5.473 C-1.457 4.64 -1.378 3.807 -1.297 2.949 C-1 1 -1 1 0 0 Z " fill="#68A47E" transform="translate(403,237)"/>
<path d="M0 0 C0.282 0.566 0.565 1.132 0.855 1.715 C1.233 2.469 1.611 3.223 2 4 C2.367 4.744 2.735 5.488 3.113 6.254 C3.509 7.016 3.905 7.778 4.312 8.562 C4.701 9.327 5.089 10.091 5.488 10.879 C7.391 13.548 9.02 14.641 12 16 C15.02 16.397 15.02 16.397 18.125 16.25 C19.676 16.227 19.676 16.227 21.258 16.203 C24.091 16.106 24.091 16.106 27 15 C27 15.66 27 16.32 27 17 C28.65 16.34 30.3 15.68 32 15 C32.99 16.98 33.98 18.96 35 21 C33.68 21 32.36 21 31 21 C30.505 20.01 30.505 20.01 30 19 C29.144 19.159 28.288 19.317 27.406 19.48 C20.642 20.512 13.687 21.32 7.438 18.25 C6.633 17.507 5.829 16.765 5 16 C4.278 15.402 3.556 14.804 2.812 14.188 C0.439 11.323 -0.789 8.505 -2 5 C-1 2 -1 2 0 0 Z " fill="#DDF5E5" transform="translate(363,252)"/>
<path d="M0 0 C4.14 2.029 6.602 4.781 9.188 8.562 C10.188 11.562 10.188 11.562 10.188 18.562 C16.457 18.562 22.728 18.562 29.188 18.562 C29.188 19.553 29.188 20.542 29.188 21.562 C21.928 21.562 14.668 21.562 7.188 21.562 C6.858 18.262 6.527 14.963 6.188 11.562 C5.607 8.141 5.607 8.141 4.188 5.562 C1.888 4.209 1.888 4.209 -0.812 3.562 C-2.479 2.896 -4.146 2.229 -5.812 1.562 C-2.812 -0.438 -2.812 -0.438 0 0 Z " fill="#DEF6DC" transform="translate(466.8125,226.4375)"/>
<path d="M0 0 C2.376 2.376 3.041 4.353 4.188 7.5 C4.552 8.48 4.917 9.459 5.293 10.469 C6 13 6 13 5 15 C4.01 14.67 3.02 14.34 2 14 C1.567 14.897 1.567 14.897 1.125 15.812 C0 18 0 18 -2 21 C-2.682 22.326 -3.352 23.658 -4 25 C-4.99 24.01 -5.98 23.02 -7 22 C-5.083 14.491 -2.76 7.242 0 0 Z " fill="#66A57A" transform="translate(360,287)"/>
<path d="M0 0 C2.125 -0.054 4.25 -0.093 6.375 -0.125 C7.558 -0.148 8.742 -0.171 9.961 -0.195 C13 0 13 0 15 2 C13.122 3.878 9.961 3.391 7.438 3.562 C6.24 3.646 5.042 3.73 3.809 3.816 C2.882 3.877 1.955 3.938 1 4 C2.276 3.988 3.552 3.977 4.867 3.965 C6.536 3.955 8.206 3.946 9.875 3.938 C11.138 3.925 11.138 3.925 12.426 3.912 C13.231 3.909 14.037 3.906 14.867 3.902 C15.983 3.894 15.983 3.894 17.121 3.886 C19 4 19 4 21 5 C21.625 8.062 21.625 8.062 22 11 C22.66 11 23.32 11 24 11 C24 11.99 24 12.98 24 14 C21.525 13.505 21.525 13.505 19 13 C19 11.68 19 10.36 19 9 C18.34 9 17.68 9 17 9 C17 8.34 17 7.68 17 7 C10.73 7 4.46 7 -2 7 C-1.34 4.69 -0.68 2.38 0 0 Z " fill="#91E16A" transform="translate(449,229)"/>
<path d="M0 0 C9.24 0 18.48 0 28 0 C28 0.99 28 1.98 28 3 C19.75 3 11.5 3 3 3 C3 9.27 3 15.54 3 22 C2.67 22 2.34 22 2 22 C1.67 17.05 1.34 12.1 1 7 C0.67 7 0.34 7 0 7 C0 4.69 0 2.38 0 0 Z " fill="#E3F8E9" transform="translate(467,282)"/>
<path d="M0 0 C2.514 3.771 2.218 5.756 2.16 10.258 C2.155 10.961 2.15 11.665 2.144 12.39 C2.127 14.635 2.095 16.88 2.062 19.125 C2.035 21.377 2.01 23.629 1.991 25.881 C1.973 27.92 1.946 29.958 1.918 31.997 C1.652 34.882 1.652 34.882 3 36 C3.072 37.853 3.084 39.708 3.062 41.562 C3.053 42.574 3.044 43.586 3.035 44.629 C3.024 45.411 3.012 46.194 3 47 C2.01 47 1.02 47 0 47 C0 31.49 0 15.98 0 0 Z " fill="#E9FBED" transform="translate(439,285)"/>
<path d="M0 0 C0.66 0.33 1.32 0.66 2 1 C2.625 3.562 2.625 3.562 3 6 C2.01 6.495 2.01 6.495 1 7 C1 6.34 1 5.68 1 5 C0.34 5 -0.32 5 -1 5 C-3.712 11.586 -5.317 17.28 -5.625 24.375 C-5.664 25.111 -5.702 25.847 -5.742 26.605 C-5.836 28.403 -5.919 30.202 -6 32 C-9.349 28.139 -9.393 25.603 -9.219 20.652 C-8.595 13.093 -6.79 7.019 -2 1 C-1.34 0.67 -0.68 0.34 0 0 Z " fill="#EBFBF1" transform="translate(369,224)"/>
<path d="M0 0 C3.922 5.036 7.013 10.573 10.25 16.062 C10.913 17.164 11.575 18.266 12.258 19.4 C12.879 20.455 13.5 21.511 14.141 22.598 C14.713 23.562 15.286 24.526 15.876 25.52 C17 28 17 28 16 31 C15.34 31 14.68 31 14 31 C13.617 30.319 13.233 29.638 12.838 28.936 C11.102 25.853 9.363 22.77 7.625 19.688 C6.72 18.08 6.72 18.08 5.797 16.439 C4.927 14.897 4.927 14.897 4.039 13.324 C3.505 12.376 2.971 11.428 2.42 10.452 C1.345 8.596 0.19 6.785 -1 5 C-0.625 2.312 -0.625 2.312 0 0 Z " fill="#E2F9EA" transform="translate(372,228)"/>
<path d="M0 0 C3.259 -0.062 6.517 -0.124 9.875 -0.188 C10.901 -0.215 11.927 -0.242 12.984 -0.27 C13.791 -0.278 14.598 -0.285 15.43 -0.293 C16.257 -0.309 17.085 -0.324 17.937 -0.341 C18.618 -0.228 19.299 -0.116 20 0 C20.66 0.99 21.32 1.98 22 3 C15.4 3 8.8 3 2 3 C2 8.61 2 14.22 2 20 C1.34 20 0.68 20 0 20 C0 13.4 0 6.8 0 0 Z " fill="#ECFBF4" transform="translate(321,221)"/>
<path d="M0 0 C10.56 0 21.12 0 32 0 C32 0.99 32 1.98 32 3 C28.425 4.139 25.215 4.032 21.484 3.879 C20.234 3.831 18.984 3.782 17.695 3.732 C16.393 3.676 15.091 3.62 13.75 3.562 C11.774 3.484 11.774 3.484 9.758 3.404 C6.505 3.275 3.252 3.14 0 3 C0 2.01 0 1.02 0 0 Z " fill="#E6F9F1" transform="translate(241,221)"/>
<path d="M0 0 C0.33 0 0.66 0 1 0 C1.33 1.98 1.66 3.96 2 6 C3.32 6 4.64 6 6 6 C6 6.66 6 7.32 6 8 C6.99 8 7.98 8 9 8 C9.981 11.053 9.981 12.947 9 16 C7.35 16 5.7 16 4 16 C3.67 15.34 3.34 14.68 3 14 C2.67 14.66 2.34 15.32 2 16 C0.68 15.67 -0.64 15.34 -2 15 C-1.036 4.442 -1.036 4.442 0 0 Z " fill="#64A57B" transform="translate(328,320)"/>
<path d="M0 0 C1.32 0.33 2.64 0.66 4 1 C4.66 3.97 5.32 6.94 6 10 C5.01 10.33 4.02 10.66 3 11 C2.67 10.01 2.34 9.02 2 8 C1.734 8.615 1.469 9.23 1.195 9.863 C0.842 10.672 0.489 11.48 0.125 12.312 C-0.223 13.113 -0.571 13.914 -0.93 14.738 C-2 17 -2 17 -4 20 C-4.99 20.33 -5.98 20.66 -7 21 C-4.962 13.882 -2.597 6.933 0 0 Z " fill="#E0F5E6" transform="translate(359,281)"/>
<path d="M0 0 C1.65 0 3.3 0 5 0 C4.01 0.33 3.02 0.66 2 1 C2.206 2.093 2.413 3.186 2.625 4.312 C3 8 3 8 1 11 C-0.326 11.362 -1.659 11.697 -3 12 C-3.33 12.66 -3.66 13.32 -4 14 C-9.28 14 -14.56 14 -20 14 C-20 13.01 -20 12.02 -20 11 C-14.06 10.67 -8.12 10.34 -2 10 C-2.66 8.68 -3.32 7.36 -4 6 C-2.68 6 -1.36 6 0 6 C0 4.02 0 2.04 0 0 Z " fill="#95DF66" transform="translate(468,249)"/>
<path d="M0 0 C6.27 0 12.54 0 19 0 C19 0.33 19 0.66 19 1 C13.06 1 7.12 1 1 1 C1.33 2.65 1.66 4.3 2 6 C1.34 6 0.68 6 0 6 C-0.155 7.547 -0.155 7.547 -0.312 9.125 C-0.991 12.951 -2.112 15.634 -4 19 C-3.01 19 -2.02 19 -1 19 C-1 19.66 -1 20.32 -1 21 C-5.95 21.495 -5.95 21.495 -11 22 C-11 21.34 -11 20.68 -11 20 C-11.99 19.67 -12.98 19.34 -14 19 C-13.469 18.781 -12.938 18.562 -12.391 18.336 C-7.339 16.068 -4.521 14.138 -2 9 C-1.34 6.03 -0.68 3.06 0 0 Z " fill="#73A487" transform="translate(477,248)"/>
<path d="M0 0 C3 1 3 1 4 3 C4.853 2.783 4.853 2.783 5.723 2.562 C13.773 0.627 19.491 0.322 27 4 C26.01 4.495 26.01 4.495 25 5 C24.67 5.66 24.34 6.32 24 7 C23.484 6.67 22.969 6.34 22.438 6 C18.274 4.292 14.44 4.552 10.188 5.875 C7.871 6.926 7.871 6.926 6 9 C5.34 8.01 4.68 7.02 4 6 C3.319 5.67 2.639 5.34 1.938 5 C0 4 0 4 -1 1 C-0.67 0.67 -0.34 0.34 0 0 Z " fill="#DAF3E4" transform="translate(365,219)"/>
<path d="M0 0 C2.686 4.03 4.866 8.282 7.125 12.562 C7.827 13.876 7.827 13.876 8.543 15.217 C8.985 16.054 9.427 16.891 9.883 17.754 C10.289 18.52 10.695 19.287 11.114 20.076 C12 22 12 22 12 24 C9.343 23.648 8.277 23.354 6.596 21.206 C5.255 18.708 3.922 16.209 2.625 13.688 C1.912 12.385 1.912 12.385 1.184 11.057 C0.744 10.217 0.304 9.377 -0.148 8.512 C-0.552 7.743 -0.956 6.974 -1.373 6.182 C-2 4 -2 4 -1.116 1.718 C-0.748 1.151 -0.379 0.584 0 0 Z " fill="#E2F6E6" transform="translate(340,248)"/>
<path d="M0 0 C0.99 0 1.98 0 3 0 C2.548 2.262 2.095 4.524 1.641 6.785 C1.166 9.167 0.698 11.55 0.234 13.934 C0.103 14.606 -0.029 15.278 -0.165 15.97 C-0.55 17.938 -0.933 19.907 -1.316 21.875 C-2 25 -2 25 -3 27 C-3.66 27 -4.32 27 -5 27 C-4.681 17.396 -2.94 9.121 0 0 Z " fill="#E5F9EA" transform="translate(334,282)"/>
<path d="M0 0 C0.677 -0.022 1.354 -0.044 2.051 -0.066 C7.064 -0.047 9.989 1.244 13.812 4.438 C13.812 5.097 13.812 5.757 13.812 6.438 C6.882 6.438 -0.048 6.438 -7.188 6.438 C-6.858 5.778 -6.527 5.118 -6.188 4.438 C-3.246 4.023 -3.246 4.023 0.375 3.812 C1.573 3.738 2.77 3.663 4.004 3.586 C4.931 3.537 5.858 3.488 6.812 3.438 C4.972 1.597 2.093 2.264 -0.375 2.25 C-1.503 2.236 -2.631 2.222 -3.793 2.207 C-7.208 2.294 -7.208 2.294 -10.363 3.512 C-13.256 4.46 -14.403 4.508 -17.188 3.438 C-11.436 0.973 -6.244 0.092 0 0 Z " fill="#9FDA7E" transform="translate(456.1875,227.5625)"/>
<path d="M0 0 C2.152 0.954 4.23 1.959 6.289 3.098 C5.959 4.088 5.629 5.078 5.289 6.098 C-0.461 4.223 -0.461 4.223 -2.711 3.098 C-8.676 2.679 -14.143 2.69 -19.711 5.098 C-19.711 4.108 -19.711 3.118 -19.711 2.098 C-13.629 -1.847 -6.823 -2.271 0 0 Z " fill="#E8FBED" transform="translate(410.7109375,281.90234375)"/>
<path d="M0 0 C2.584 0.443 4.808 0.909 7.188 2.031 C10.762 3.262 14.085 3.218 17.812 3.125 C18.505 3.116 19.198 3.107 19.912 3.098 C21.608 3.074 23.304 3.038 25 3 C24.67 3.99 24.34 4.98 24 6 C19.551 8.224 13.825 7.518 9 7 C5.695 5.709 2.871 4.077 0 2 C0 1.34 0 0.68 0 0 Z " fill="#DBF4E0" transform="translate(386,326)"/>
<path d="M0 0 C19.8 0 39.6 0 60 0 C60 0.33 60 0.66 60 1 C40.86 1 21.72 1 2 1 C2 1.66 2 2.32 2 3 C2.66 3.33 3.32 3.66 4 4 C3.67 4.99 3.34 5.98 3 7 C1.68 5.68 0.36 4.36 -1 3 C-0.67 2.01 -0.34 1.02 0 0 Z " fill="#D2F2C2" transform="translate(414,247)"/>
<path d="M0 0 C2.709 -0.081 5.415 -0.141 8.125 -0.188 C8.886 -0.213 9.646 -0.238 10.43 -0.264 C15.373 -0.328 18.734 0.219 23 3 C25.209 6.314 25.225 7.345 25.125 11.188 C25.107 12.089 25.089 12.99 25.07 13.918 C25.047 14.605 25.024 15.292 25 16 C24.01 16.33 23.02 16.66 22 17 C22.33 13.7 22.66 10.4 23 7 C21.68 6.67 20.36 6.34 19 6 C19 5.34 19 4.68 19 4 C18.361 3.856 17.721 3.711 17.062 3.562 C15 3 15 3 14 2 C11.65 1.765 9.294 1.586 6.938 1.438 C5.647 1.354 4.357 1.27 3.027 1.184 C1.529 1.093 1.529 1.093 0 1 C0 0.67 0 0.34 0 0 Z " fill="#71A584" transform="translate(324,224)"/>
<path d="M0 0 C1.32 0.33 2.64 0.66 4 1 C3.333 3.667 2.667 6.333 2 9 C1.01 9 0.02 9 -1 9 C-1.33 9.99 -1.66 10.98 -2 12 C-2.66 11.67 -3.32 11.34 -4 11 C-4.33 11.66 -4.66 12.32 -5 13 C-6.32 13 -7.64 13 -9 13 C-9 11.35 -9 9.7 -9 8 C-7.515 8.99 -7.515 8.99 -6 10 C-5.732 8.866 -5.464 7.731 -5.188 6.562 C-4.796 5.387 -4.404 4.211 -4 3 C-3.01 2.67 -2.02 2.34 -1 2 C-0.67 1.34 -0.34 0.68 0 0 Z " fill="#5BA975" transform="translate(362,301)"/>
<path d="M0 0 C0.33 0 0.66 0 1 0 C1.605 9.337 1.137 16.038 -4 24 C-4.66 24 -5.32 24 -6 24 C-6.66 22.35 -7.32 20.7 -8 19 C-7.34 18.67 -6.68 18.34 -6 18 C-6 18.66 -6 19.32 -6 20 C-5.34 20 -4.68 20 -4 20 C-4 15.05 -4 10.1 -4 5 C-3.01 5.66 -2.02 6.32 -1 7 C-0.67 4.69 -0.34 2.38 0 0 Z " fill="#78B18E" transform="translate(398,240)"/>
<path d="M0 0 C1.65 0 3.3 0 5 0 C4.288 1.547 4.288 1.547 3.562 3.125 C-0.807 13.452 0.683 23.613 4 34 C3.01 34 2.02 34 1 34 C-0.683 30.325 -1.248 27.469 -1.23 23.438 C-1.228 21.871 -1.228 21.871 -1.225 20.273 C-1.212 19.193 -1.2 18.113 -1.188 17 C-1.187 15.92 -1.186 14.84 -1.186 13.727 C-1.159 8.998 -1.052 4.627 0 0 Z " fill="#72A686" transform="translate(360,229)"/>
<path d="M0 0 C0.66 0 1.32 0 2 0 C2 1.98 2 3.96 2 6 C10.58 6 19.16 6 28 6 C28 6.66 28 7.32 28 8 C18.76 8 9.52 8 0 8 C0 5.36 0 2.72 0 0 Z " fill="#F8FEF5" transform="translate(467,324)"/>
<path d="M0 0 C0.66 0 1.32 0 2 0 C3.04 3.223 4.053 6.454 5.062 9.688 C5.357 10.6 5.652 11.512 5.955 12.451 C6.229 13.337 6.503 14.224 6.785 15.137 C7.042 15.948 7.298 16.76 7.563 17.596 C8.063 20.348 7.705 22.314 7 25 C4.151 19.708 2.712 15.046 3 9 C1.68 8.67 0.36 8.34 -1 8 C-1.125 2.25 -1.125 2.25 0 0 Z " fill="#75A98B" transform="translate(309,290)"/>
<path d="M0 0 C0.99 0 1.98 0 3 0 C3.133 0.71 3.266 1.421 3.402 2.152 C3.579 3.071 3.756 3.991 3.938 4.938 C4.199 6.312 4.199 6.312 4.465 7.715 C4.777 9.953 4.777 9.953 6 11 C8.12 7.466 8.532 4.056 9 0 C9.66 0 10.32 0 11 0 C10.522 2.584 10.043 5.167 9.562 7.75 C9.428 8.48 9.293 9.209 9.154 9.961 C8.525 13.335 7.857 16.676 7 20 C6.34 20 5.68 20 5 20 C4.162 17.043 3.331 14.084 2.5 11.125 C2.262 10.283 2.023 9.441 1.777 8.574 C1.552 7.769 1.326 6.963 1.094 6.133 C0.884 5.389 0.675 4.646 0.459 3.879 C0 2 0 2 0 0 Z " fill="#73A785" transform="translate(318,304)"/>
<path d="M0 0 C0.99 0 1.98 0 3 0 C2.731 6.052 2.091 10.246 -2 15 C-7.263 19 -7.263 19 -10 19 C-10 18.01 -10 17.02 -10 16 C-8.907 15.34 -7.814 14.68 -6.688 14 C-2.166 11.044 -1.53 7.308 -0.41 2.23 C-0.275 1.494 -0.139 0.758 0 0 Z " fill="#DCF9DE" transform="translate(474,248)"/>
<path d="M0 0 C1.258 -0.041 2.516 -0.082 3.812 -0.125 C4.52 -0.148 5.228 -0.171 5.957 -0.195 C8 0 8 0 11 2 C12.655 2.385 14.322 2.728 16 3 C16 3.66 16 4.32 16 5 C21.94 5 27.88 5 34 5 C31.237 7.763 29.552 7.332 25.688 7.375 C16.421 7.261 8.491 4.459 0 1 C0 0.67 0 0.34 0 0 Z " fill="#A6D98B" transform="translate(432,258)"/>
<path d="M0 0 C0 0.66 0 1.32 0 2 C-2.623 3.338 -5.248 4.671 -7.875 6 C-8.995 6.572 -8.995 6.572 -10.137 7.156 C-10.852 7.517 -11.568 7.878 -12.305 8.25 C-12.965 8.585 -13.624 8.92 -14.304 9.266 C-16 10 -16 10 -18 10 C-18 10.66 -18 11.32 -18 12 C-18.99 12.33 -19.98 12.66 -21 13 C-21.66 12.34 -22.32 11.68 -23 11 C-8.199 0 -8.199 0 0 0 Z " fill="#E1F9DC" transform="translate(436,231)"/>
<path d="M0 0 C7.26 0 14.52 0 22 0 C22 0.99 22 1.98 22 3 C14.74 3 7.48 3 0 3 C0 2.01 0 1.02 0 0 Z " fill="#E6F9EF" transform="translate(474,245)"/>
<path d="M0 0 C0.99 0 1.98 0 3 0 C3 0.99 3 1.98 3 3 C4.29 2.988 5.581 2.977 6.91 2.965 C8.628 2.955 10.345 2.946 12.062 2.938 C12.91 2.929 13.758 2.921 14.631 2.912 C19.536 2.893 24.164 3.167 29 4 C29 4.33 29 4.66 29 5 C19.76 5 10.52 5 1 5 C1 5.66 1 6.32 1 7 C0.34 6.67 -0.32 6.34 -1 6 C-1 3 -1 3 0 0 Z " fill="#6AA17F" transform="translate(282,216)"/>
<path d="M0 0 C1.772 3.039 2.189 5.067 2 8.562 C1.804 12.189 1.862 12.793 4 16 C3.01 16.66 2.02 17.32 1 18 C-2.193 15.084 -2.926 13.005 -3.25 8.625 C-2.987 4.811 -2.217 3.048 0 0 Z " fill="#D9F2E3" transform="translate(390,285)"/>
<path d="M0 0 C0.33 0.99 0.66 1.98 1 3 C1.66 3.33 2.32 3.66 3 4 C1.68 10.6 0.36 17.2 -1 24 C-1.33 22.68 -1.66 21.36 -2 20 C-2.99 20 -3.98 20 -5 20 C-5 19.34 -5 18.68 -5 18 C-4.34 18 -3.68 18 -3 18 C-2.951 17.371 -2.902 16.742 -2.852 16.094 C-2.366 10.531 -1.494 5.38 0 0 Z " fill="#E3F7E6" transform="translate(328,306)"/>
<path d="M0 0 C0.33 0.66 0.66 1.32 1 2 C1.66 2 2.32 2 3 2 C3 9.59 3 17.18 3 25 C2.67 25 2.34 25 2 25 C2 23.02 2 21.04 2 19 C1.34 19 0.68 19 0 19 C0 12.73 0 6.46 0 0 Z " fill="#E8FBEF" transform="translate(467,305)"/>
<path d="M0 0 C1.088 3.314 1.073 3.836 -0.438 7.25 C-0.953 8.158 -1.469 9.065 -2 10 C-2.66 10 -3.32 10 -4 10 C-4 10.66 -4 11.32 -4 12 C3.59 12.33 11.18 12.66 19 13 C19 13.33 19 13.66 19 14 C10.42 14 1.84 14 -7 14 C-7 10.117 -5.621 8.532 -3.5 5.312 C-2.85 4.319 -2.201 3.325 -1.531 2.301 C-0.773 1.162 -0.773 1.162 0 0 Z " fill="#6CA683" transform="translate(253,253)"/>
<path d="M0 0 C0.33 0.66 0.66 1.32 1 2 C1.66 2 2.32 2 3 2 C2.69 3.605 2.377 5.209 2.062 6.812 C1.888 7.706 1.714 8.599 1.535 9.52 C1 12 1 12 0 15 C-0.66 15 -1.32 15 -2 15 C-2.66 10.71 -3.32 6.42 -4 2 C-2.68 1.34 -1.36 0.68 0 0 Z " fill="#6DA785" transform="translate(297,310)"/>
<path d="M0 0 C4.889 0.623 8.803 2.713 13.125 4.938 C13.84 5.298 14.556 5.658 15.293 6.029 C18.328 7.569 21.161 9.107 24 11 C15.945 10.965 9.543 8.774 3 4 C2.67 3.01 2.34 2.02 2 1 C1.34 0.67 0.68 0.34 0 0 Z " fill="#E0FBDA" transform="translate(416,251)"/>
<path d="M0 0 C3.223 0.239 4.237 1.226 6.625 3.5 C9.596 7.248 10.309 11.357 11 16 C10.01 16 9.02 16 8 16 C7.758 15.408 7.515 14.817 7.266 14.207 C5.297 9.566 3.287 5.874 0 2 C0 1.34 0 0.68 0 0 Z " fill="#E6F8EB" transform="translate(390,224)"/>
<path d="M0 0 C8.91 0 17.82 0 27 0 C27 0.99 27 1.98 27 3 C23.25 3.087 19.501 3.14 15.75 3.188 C14.155 3.225 14.155 3.225 12.527 3.264 C11.503 3.273 10.478 3.283 9.422 3.293 C8.479 3.309 7.537 3.324 6.565 3.341 C4 3 4 3 0 0 Z " fill="#E0F9EA" transform="translate(284,221)"/>
<path d="M0 0 C0.33 0 0.66 0 1 0 C2.385 5.455 3.24 10.367 3 16 C3.66 16.33 4.32 16.66 5 17 C4.34 17.33 3.68 17.66 3 18 C3 19.65 3 21.3 3 23 C3.99 22.67 4.98 22.34 6 22 C6 22.66 6 23.32 6 24 C4.68 24 3.36 24 2 24 C0.68 17.4 -0.64 10.8 -2 4 C-1.34 4 -0.68 4 0 4 C0 2.68 0 1.36 0 0 Z " fill="#DBF2E1" transform="translate(292,309)"/>
<path d="M0 0 C7.59 0 15.18 0 23 0 C23 0.33 23 0.66 23 1 C16.4 1.33 9.8 1.66 3 2 C1.761 5.099 0.54 8.187 -0.625 11.312 C-1.079 12.529 -1.533 13.746 -2 15 C-2.66 14.67 -3.32 14.34 -4 14 C-2.823 9.292 -1.395 4.649 0 0 Z " fill="#79A98D" transform="translate(349,318)"/>
<path d="M0 0 C0.99 0 1.98 0 3 0 C7.592 11.522 7.592 11.522 7 17 C6.34 17 5.68 17 5 17 C2.546 11.327 0.538 6.182 0 0 Z " fill="#E6F7E8" transform="translate(363,291)"/>
<path d="M0 0 C3.117 0.616 5.252 1.663 7.875 3.438 C11.147 5.557 14.215 6.959 18 8 C15 10 15 10 11.438 9.75 C7.697 8.934 6.983 8.065 4.5 5.375 C3.093 3.775 3.093 3.775 1 4 C0.67 2.68 0.34 1.36 0 0 Z " fill="#6CA381" transform="translate(386,300)"/>
<path d="M0 0 C2.376 2.376 3.041 4.353 4.188 7.5 C4.552 8.48 4.917 9.459 5.293 10.469 C6 13 6 13 5 15 C3.68 14.67 2.36 14.34 1 14 C0.814 13.072 0.814 13.072 0.625 12.125 C0.128 9.809 0.128 9.809 -2 8 C-1.637 5.17 -0.903 2.709 0 0 Z " fill="#71A887" transform="translate(360,287)"/>
<path d="M0 0 C0.99 0.66 1.98 1.32 3 2 C2.34 2.495 1.68 2.99 1 3.5 C-1.883 7.103 -1.302 9.47 -1 14 C0.32 14.33 1.64 14.66 3 15 C2.67 15.66 2.34 16.32 2 17 C-0.468 15.848 -2.048 14.952 -4 13 C-4.504 9.964 -4.464 7.04 -4 4 C-2 1.438 -2 1.438 0 0 Z " fill="#6F9E7D" transform="translate(395,285)"/>
<path d="M0 0 C1.32 0.33 2.64 0.66 4 1 C1.36 5.29 -1.28 9.58 -4 14 C-5.32 13.34 -6.64 12.68 -8 12 C-7.506 11.301 -7.013 10.603 -6.504 9.883 C-5.863 8.973 -5.223 8.063 -4.562 7.125 C-3.924 6.22 -3.286 5.315 -2.629 4.383 C-1.005 2.123 -1.005 2.123 0 0 Z " fill="#DFF4E4" transform="translate(268,224)"/>
<path d="M0 0 C0.99 0 1.98 0 3 0 C3.92 4.69 4.361 7.751 2 12 C0.5 13.812 0.5 13.812 -1 15 C-1.66 15 -2.32 15 -3 15 C-2.691 14.381 -2.381 13.762 -2.062 13.125 C-0.596 8.812 -0.334 4.524 0 0 Z " fill="#69A17C" transform="translate(418,314)"/>
<path d="M0 0 C0.66 0 1.32 0 2 0 C3.65 3.3 5.3 6.6 7 10 C6.01 10.495 6.01 10.495 5 11 C4.34 9.68 3.68 8.36 3 7 C2.01 7.495 2.01 7.495 1 8 C0.34 7.67 -0.32 7.34 -1 7 C-1.33 7.66 -1.66 8.32 -2 9 C-2.66 9 -3.32 9 -4 9 C-2.941 5.597 -1.991 2.986 0 0 Z " fill="#71A786" transform="translate(368,229)"/>
<path d="M0 0 C0.33 0 0.66 0 1 0 C1 6.27 1 12.54 1 19 C-2.746 14.006 -2.593 11.018 -2 5 C-1 1.875 -1 1.875 0 0 Z " fill="#ECFBF2" transform="translate(362,237)"/>
<path d="M0 0 C0.99 0.33 1.98 0.66 3 1 C4.511 4.4 3.918 7.481 3 11 C0 13 0 13 -3 13 C-2.01 8.71 -1.02 4.42 0 0 Z " fill="#68A77E" transform="translate(403,245)"/>
<path d="M0 0 C0.66 0 1.32 0 2 0 C2.082 3.044 1.976 5.072 1 8 C1.495 8.66 1.99 9.32 2.5 10 C2.995 10.66 3.49 11.32 4 12 C3.67 12.99 3.34 13.98 3 15 C-0.511 10.987 -2.765 6.79 -5 2 C-4.01 1.67 -3.02 1.34 -2 1 C-1.67 1.33 -1.34 1.66 -1 2 C-0.67 1.34 -0.34 0.68 0 0 Z " fill="#6DA380" transform="translate(384,238)"/>
<path d="M0 0 C2.125 -0.054 4.25 -0.093 6.375 -0.125 C7.558 -0.148 8.742 -0.171 9.961 -0.195 C13 0 13 0 15 2 C14 3 14 3 10.621 3.098 C9.227 3.091 7.832 3.079 6.438 3.062 C5.727 3.058 5.016 3.053 4.283 3.049 C2.522 3.037 0.761 3.019 -1 3 C-0.67 2.01 -0.34 1.02 0 0 Z " fill="#93DF6C" transform="translate(449,229)"/>
<path d="M0 0 C0.33 0.66 0.66 1.32 1 2 C2.65 1.34 4.3 0.68 6 0 C6.99 1.98 7.98 3.96 9 6 C7.68 6 6.36 6 5 6 C4.67 5.34 4.34 4.68 4 4 C1.69 4.33 -0.62 4.66 -3 5 C-3 4.34 -3 3.68 -3 3 C-5.64 3 -8.28 3 -11 3 C-11 2.67 -11 2.34 -11 2 C-10.06 1.909 -10.06 1.909 -9.102 1.816 C-7.876 1.691 -7.876 1.691 -6.625 1.562 C-5.813 1.481 -5.001 1.4 -4.164 1.316 C-1.957 1.109 -1.957 1.109 0 0 Z " fill="#CFEBD9" transform="translate(389,267)"/>
<path d="M0 0 C0.66 0.33 1.32 0.66 2 1 C0.787 4.724 -0.509 8.378 -2 12 C-2.99 11.34 -3.98 10.68 -5 10 C-5.66 9.67 -6.32 9.34 -7 9 C-6.67 7.02 -6.34 5.04 -6 3 C-5.34 3 -4.68 3 -4 3 C-4 3.66 -4 4.32 -4 5 C-3.34 5 -2.68 5 -2 5 C-1.856 4.361 -1.711 3.721 -1.562 3.062 C-1 1 -1 1 0 0 Z " fill="#5CA677" transform="translate(386,230)"/>
<path d="M0 0 C-0.33 1.32 -0.66 2.64 -1 4 C-0.01 4 0.98 4 2 4 C2 4.66 2 5.32 2 6 C-1.3 6.33 -4.6 6.66 -8 7 C-8 6.34 -8 5.68 -8 5 C-8.99 4.67 -9.98 4.34 -11 4 C-9.733 3.326 -8.461 2.661 -7.188 2 C-6.48 1.629 -5.772 1.257 -5.043 0.875 C-3 0 -3 0 0 0 Z " fill="#6CA57A" transform="translate(474,263)"/>
<path d="M0 0 C6.205 0.483 11.999 1.333 18 3 C17.67 3.99 17.34 4.98 17 6 C11.071 4.833 5.612 3.245 0 1 C0 0.67 0 0.34 0 0 Z " fill="#DBF6D6" transform="translate(432,261)"/>
<path d="M0 0 C2.97 0.495 2.97 0.495 6 1 C6.33 1.99 6.66 2.98 7 4 C7.66 4 8.32 4 9 4 C9 4.66 9 5.32 9 6 C11.31 6.33 13.62 6.66 16 7 C16 7.99 16 8.98 16 10 C10.155 8.462 4.873 5.544 0 2 C0 1.34 0 0.68 0 0 Z " fill="#A4D78B" transform="translate(416,248)"/>
<path d="M0 0 C0.33 0 0.66 0 1 0 C0.988 0.664 0.977 1.328 0.965 2.012 C0.881 8.563 0.881 8.563 2 15 C1.01 15.495 1.01 15.495 0 16 C-3.686 7.448 -3.686 7.448 -2 2 C-1.34 1.34 -0.68 0.68 0 0 Z " fill="#6FA380" transform="translate(377,310)"/>
<path d="M0 0 C7.695 -0.518 13.219 0.249 20 4 C19.67 4.99 19.34 5.98 19 7 C13.323 5.36 13.323 5.36 11.625 3.469 C9.409 1.466 7.756 1.504 4.812 1.312 C3.911 1.247 3.01 1.181 2.082 1.113 C1.395 1.076 0.708 1.039 0 1 C0 0.67 0 0.34 0 0 Z " fill="#DAF4E2" transform="translate(397,281)"/>
<path d="M0 0 C0.66 0 1.32 0 2 0 C2.346 5.654 1.434 9.03 -1 14 C-2.424 11.686 -3.037 10.42 -2.793 7.676 C-2.593 6.896 -2.393 6.116 -2.188 5.312 C-1.995 4.525 -1.803 3.737 -1.605 2.926 C-1 1 -1 1 0 0 Z " fill="#5AA878" transform="translate(325,304)"/>
<path d="M0 0 C0.66 0 1.32 0 2 0 C2.268 0.969 2.536 1.939 2.812 2.938 C3.204 3.948 3.596 4.959 4 6 C4.99 6.33 5.98 6.66 7 7 C6.34 8.32 5.68 9.64 5 11 C4.01 11 3.02 11 2 11 C1.01 7.7 0.02 4.4 -1 1 C-0.67 0.67 -0.34 0.34 0 0 Z " fill="#ECF9F3" transform="translate(388,258)"/>
<path d="M0 0 C0 0.66 0 1.32 0 2 C-4.045 3.966 -6.869 4.113 -11.312 3.625 C-12.381 3.514 -13.45 3.403 -14.551 3.289 C-15.359 3.194 -16.167 3.098 -17 3 C-17 2.34 -17 1.68 -17 1 C-14.917 0.831 -12.833 0.665 -10.75 0.5 C-9.59 0.407 -8.43 0.314 -7.234 0.219 C-4.827 0.056 -2.413 0 0 0 Z " fill="#F2FEF5" transform="translate(342,246)"/>
<path d="M0 0 C0.33 0 0.66 0 1 0 C0.885 1.584 0.758 3.167 0.625 4.75 C0.555 5.632 0.486 6.513 0.414 7.422 C0.001 9.991 -0.712 11.758 -2 14 C-2.66 14 -3.32 14 -4 14 C-4.33 12.02 -4.66 10.04 -5 8 C-4.01 8 -3.02 8 -2 8 C-1.856 6.866 -1.711 5.731 -1.562 4.562 C-1 1 -1 1 0 0 Z " fill="#F1FDF1" transform="translate(299,318)"/>
<path d="M0 0 C0 0.99 0 1.98 0 3 C2.31 3 4.62 3 7 3 C7 3.33 7 3.66 7 4 C4.36 4 1.72 4 -1 4 C-1 4.99 -1 5.98 -1 7 C-3.475 6.01 -3.475 6.01 -6 5 C-5.625 3.062 -5.625 3.062 -5 1 C-3 0 -3 0 0 0 Z " fill="#ECFAE9" transform="translate(415,243)"/>
<path d="M0 0 C0.66 0.33 1.32 0.66 2 1 C4.371 1.23 6.747 1.411 9.125 1.562 C10.406 1.646 11.688 1.73 13.008 1.816 C14.489 1.907 14.489 1.907 16 2 C16 2.66 16 3.32 16 4 C10.39 4 4.78 4 -1 4 C-0.67 2.68 -0.34 1.36 0 0 Z " fill="#94E165" transform="translate(448,232)"/>
<path d="M0 0 C4.875 1.75 4.875 1.75 6 4 C5.34 4 4.68 4 4 4 C3.67 4.99 3.34 5.98 3 7 C1.02 7.33 -0.96 7.66 -3 8 C-2.691 7.237 -2.381 6.474 -2.062 5.688 C-1.321 3.812 -0.638 1.913 0 0 Z " fill="#65A47C" transform="translate(419,255)"/>
<path d="M0 0 C2.125 0.938 2.125 0.938 4 2 C3.01 2.495 3.01 2.495 2 3 C2.66 3.66 3.32 4.32 4 5 C1.03 5.66 -1.94 6.32 -5 7 C-5 5.68 -5 4.36 -5 3 C-2 1 -2 1 0 0 Z " fill="#6EA882" transform="translate(374,216)"/>
<path d="M0 0 C0.33 0.66 0.66 1.32 1 2 C1.66 2 2.32 2 3 2 C2.01 6.29 1.02 10.58 0 15 C-0.99 14.34 -1.98 13.68 -3 13 C-2.01 8.71 -1.02 4.42 0 0 Z " fill="#DFF5E5" transform="translate(301,306)"/>
<path d="M0 0 C4.95 0 9.9 0 15 0 C15 0.99 15 1.98 15 3 C10.05 3 5.1 3 0 3 C0 2.01 0 1.02 0 0 Z " fill="#E1FCEB" transform="translate(470,304)"/>
<path d="M0 0 C6.27 0 12.54 0 19 0 C19 0.33 19 0.66 19 1 C13.39 1 7.78 1 2 1 C2 1.66 2 2.32 2 3 C2.66 3.33 3.32 3.66 4 4 C3.67 4.99 3.34 5.98 3 7 C1.68 5.68 0.36 4.36 -1 3 C-0.67 2.01 -0.34 1.02 0 0 Z " fill="#D2F0CD" transform="translate(414,247)"/>
<path d="M0 0 C0.66 0.33 1.32 0.66 2 1 C2.625 4.062 2.625 4.062 3 7 C4.32 6.67 5.64 6.34 7 6 C7 6.66 7 7.32 7 8 C6.34 8 5.68 8 5 8 C4.67 8.99 4.34 9.98 4 11 C1.438 8.875 1.438 8.875 -1 6 C-0.812 2.688 -0.812 2.688 0 0 Z " fill="#74AA87" transform="translate(373,325)"/>
<path d="M0 0 C4.29 0.99 8.58 1.98 13 3 C13 3.99 13 4.98 13 6 C6.594 6.37 6.594 6.37 3.688 4.562 C2.852 3.789 2.852 3.789 2 3 C1.34 2.67 0.68 2.34 0 2 C0 1.34 0 0.68 0 0 Z " fill="#67A57F" transform="translate(438,264)"/>
<path d="M0 0 C2.567 3.85 1.833 5.586 1 10 C-0.32 9.67 -1.64 9.34 -3 9 C-3.33 7.35 -3.66 5.7 -4 4 C-2.68 3.34 -1.36 2.68 0 2 C0 1.34 0 0.68 0 0 Z " fill="#5EA474" transform="translate(393,250)"/>
<path d="M0 0 C0.99 0.33 1.98 0.66 3 1 C1.549 4.825 -0.382 6.191 -4 8 C-4.66 8 -5.32 8 -6 8 C-6.33 7.01 -6.66 6.02 -7 5 C-6.216 4.732 -5.433 4.464 -4.625 4.188 C-1.719 3.152 -1.719 3.152 0 0 Z " fill="#DEF7E5" transform="translate(348,240)"/>
<path d="M0 0 C3 1 3 1 4 3 C5.32 3 6.64 3 8 3 C8 3.66 8 4.32 8 5 C8.66 5.33 9.32 5.66 10 6 C8.68 6.99 7.36 7.98 6 9 C5.34 8.01 4.68 7.02 4 6 C3.319 5.67 2.639 5.34 1.938 5 C0 4 0 4 -1 1 C-0.67 0.67 -0.34 0.34 0 0 Z " fill="#D3F2DF" transform="translate(365,219)"/>
<path d="M0 0 C0.99 0 1.98 0 3 0 C2.913 1.439 2.804 2.876 2.688 4.312 C2.629 5.113 2.571 5.914 2.512 6.738 C1.918 9.363 1.042 10.308 -1 12 C-1.082 7.839 -0.982 4.053 0 0 Z " fill="#E1FBE0" transform="translate(474,248)"/>
<path d="M0 0 C2.24 2.879 4.299 5.767 6 9 C5 11 5 11 3 12 C-1.062 5.723 -1.062 5.723 -0.75 2.062 C-0.502 1.382 -0.255 0.701 0 0 Z " fill="#DEF4E2" transform="translate(372,228)"/>
<path d="M0 0 C3.46 1.624 4.927 3.316 7.062 6.438 C6.072 6.768 5.082 7.097 4.062 7.438 C4.062 6.778 4.062 6.118 4.062 5.438 C3.341 5.149 2.619 4.86 1.875 4.562 C-0.729 3.521 -3.333 2.479 -5.938 1.438 C-2.938 -0.562 -2.938 -0.562 0 0 Z " fill="#E4FDDC" transform="translate(466.9375,226.5625)"/>
<path d="M0 0 C2.325 2.853 3.751 5.541 5 9 C4.01 9.33 3.02 9.66 2 10 C-2 3.25 -2 3.25 -2 1 C-1.34 0.67 -0.68 0.34 0 0 Z " fill="#DEF4E7" transform="translate(384,249)"/>
<path d="M0 0 C0.66 0 1.32 0 2 0 C3.478 2.957 3.06 5.742 3 9 C1.68 8.67 0.36 8.34 -1 8 C-1.125 2.25 -1.125 2.25 0 0 Z " fill="#6BA886" transform="translate(309,290)"/>
<path d="M0 0 C3 0 3 0 5 1 C5 1.66 5 2.32 5 3 C3.242 3.977 1.484 4.953 -0.273 5.93 C-2.161 7.009 -2.161 7.009 -4 9 C-4.33 8.01 -4.66 7.02 -5 6 C-2.75 2.812 -2.75 2.812 0 0 Z " fill="#71A583" transform="translate(392,279)"/>
<path d="M0 0 C5.28 0 10.56 0 16 0 C16 0.66 16 1.32 16 2 C17.32 2.33 18.64 2.66 20 3 C16.112 4.495 13.844 3.281 10 2 C6.676 1.542 3.346 1.251 0 1 C0 0.67 0 0.34 0 0 Z " fill="#5CA376" transform="translate(450,268)"/>
<path d="M0 0 C1.732 3.162 2.713 6.267 3.625 9.75 C3.885 10.735 4.146 11.72 4.414 12.734 C4.607 13.482 4.801 14.23 5 15 C4.01 15 3.02 15 2 15 C-0.592 10.139 -0.187 5.347 0 0 Z " fill="#76A588" transform="translate(359,248)"/>
<path d="M0 0 C0.99 0.33 1.98 0.66 3 1 C2.453 4.375 1.945 6.082 0 9 C-0.99 9.33 -1.98 9.66 -3 10 C-2.01 6.7 -1.02 3.4 0 0 Z " fill="#DDF1E0" transform="translate(355,292)"/>
<path d="M0 0 C1.255 3.766 0.371 5.372 -1 9 C-0.01 9.33 0.98 9.66 2 10 C1.01 10 0.02 10 -1 10 C-1 10.66 -1 11.32 -1 12 C-1.99 12.33 -2.98 12.66 -4 13 C-3.717 11.394 -3.423 9.79 -3.125 8.188 C-2.963 7.294 -2.8 6.401 -2.633 5.48 C-2 3 -2 3 0 0 Z " fill="#71A681" transform="translate(343,323)"/>
<path d="M0 0 C1.884 3.265 2.493 6.281 3 10 C2.34 10 1.68 10 1 10 C0.67 10.66 0.34 11.32 0 12 C-0.66 9.03 -1.32 6.06 -2 3 C-1.34 3 -0.68 3 0 3 C0 2.01 0 1.02 0 0 Z " fill="#D9F1E1" transform="translate(317,302)"/>
<path d="M0 0 C0.99 0.495 0.99 0.495 2 1 C3.158 4.473 3.069 7.361 3 11 C3.66 11 4.32 11 5 11 C4.67 12.65 4.34 14.3 4 16 C1.725 12.588 1.434 10.343 0.875 6.312 C0.707 5.133 0.54 3.954 0.367 2.738 C0.185 1.383 0.185 1.383 0 0 Z " fill="#72A384" transform="translate(289,293)"/>
<path d="M0 0 C2.97 0.99 5.94 1.98 9 3 C8.01 3.495 8.01 3.495 7 4 C7 4.66 7 5.32 7 6 C1.25 4.375 1.25 4.375 -1 1 C-0.67 0.67 -0.34 0.34 0 0 Z " fill="#DFF6E6" transform="translate(393,301)"/>
<path d="M0 0 C0.66 0.99 1.32 1.98 2 3 C1.34 3 0.68 3 0 3 C0.33 4.98 0.66 6.96 1 9 C-0.98 9.99 -0.98 9.99 -3 11 C-3.75 9.438 -3.75 9.438 -4 7 C-2.869 4.497 -1.479 2.33 0 0 Z " fill="#72AA87" transform="translate(399,259)"/>
<path d="M0 0 C0.66 0 1.32 0 2 0 C2 1.98 2 3.96 2 6 C3.65 6 5.3 6 7 6 C7 6.66 7 7.32 7 8 C4.69 8 2.38 8 0 8 C0 5.36 0 2.72 0 0 Z " fill="#EFFFF7" transform="translate(467,324)"/>
<path d="M0 0 C1.884 3.265 2.493 6.281 3 10 C2.01 10 1.02 10 0 10 C-1.125 6.688 -1.125 6.688 -2 3 C-1.34 2.01 -0.68 1.02 0 0 Z " fill="#DEF6E5" transform="translate(376,322)"/>
<path d="M0 0 C0.33 0 0.66 0 1 0 C1.982 4.053 2.082 7.839 2 12 C1.34 12 0.68 12 0 12 C-2.215 4.615 -2.215 4.615 -1.125 1.5 C-0.754 1.005 -0.382 0.51 0 0 Z " fill="#DEF4E7" transform="translate(290,301)"/>
<path d="M0 0 C0.33 0 0.66 0 1 0 C1.027 1.625 1.046 3.25 1.062 4.875 C1.074 5.78 1.086 6.685 1.098 7.617 C1 10 1 10 0 12 C-0.66 12 -1.32 12 -2 12 C-2.178 7.452 -1.998 4.121 0 0 Z " fill="#EDFAED" transform="translate(331,297)"/>
<path d="M0 0 C0.99 0.33 1.98 0.66 3 1 C2.188 3.938 2.188 3.938 1 7 C0.01 7.33 -0.98 7.66 -2 8 C-2.66 6.35 -3.32 4.7 -4 3 C-3.34 2.67 -2.68 2.34 -2 2 C-2 2.66 -2 3.32 -2 4 C-1.34 4 -0.68 4 0 4 C0 2.68 0 1.36 0 0 Z " fill="#75A98A" transform="translate(394,256)"/>
<path d="M0 0 C1.777 2.666 2.875 5.028 4 8 C3.34 8 2.68 8 2 8 C1.67 8.66 1.34 9.32 1 10 C-0.625 7.25 -0.625 7.25 -2 4 C-1.188 1.625 -1.188 1.625 0 0 Z " fill="#E4F7E7" transform="translate(340,248)"/>
<path d="M0 0 C1.65 0 3.3 0 5 0 C4.01 0.33 3.02 0.66 2 1 C2.206 2.093 2.413 3.186 2.625 4.312 C3 8 3 8 1 11 C0.34 10.67 -0.32 10.34 -1 10 C-0.67 6.7 -0.34 3.4 0 0 Z " fill="#99DF68" transform="translate(468,249)"/>
<path d="M0 0 C0 0.66 0 1.32 0 2 C-0.99 2.495 -0.99 2.495 -2 3 C0.97 3.33 3.94 3.66 7 4 C7 4.33 7 4.66 7 5 C2.38 5 -2.24 5 -7 5 C-6.67 4.34 -6.34 3.68 -6 3 C-5.34 3 -4.68 3 -4 3 C-4 2.34 -4 1.68 -4 1 C-2 0 -2 0 0 0 Z " fill="#A8D689" transform="translate(422,240)"/>
<path d="M0 0 C3.375 -0.125 3.375 -0.125 7 0 C7.66 0.66 8.32 1.32 9 2 C8 3 8 3 5.934 3.098 C5.11 3.086 4.286 3.074 3.438 3.062 C2.611 3.053 1.785 3.044 0.934 3.035 C0.296 3.024 -0.343 3.012 -1 3 C-0.67 2.01 -0.34 1.02 0 0 Z " fill="#92E06F" transform="translate(422,240)"/>
<path d="M0 0 C0.66 1.32 1.32 2.64 2 4 C-3.5 9 -3.5 9 -8 9 C-8 8.34 -8 7.68 -8 7 C-7.237 6.959 -6.474 6.918 -5.688 6.875 C-2.676 6.222 -2.676 6.222 -1.188 2.938 C-0.796 1.968 -0.404 0.999 0 0 Z " fill="#74A384" transform="translate(412,321)"/>
<path d="M0 0 C3.63 0.33 7.26 0.66 11 1 C11 1.66 11 2.32 11 3 C7.7 3 4.4 3 1 3 C0.67 2.01 0.34 1.02 0 0 Z " fill="#EFFEF6" transform="translate(375,269)"/>
<path d="M0 0 C0.99 0.33 1.98 0.66 3 1 C2.312 3.438 2.312 3.438 1 6 C-1.625 6.812 -1.625 6.812 -4 7 C-2.68 4.69 -1.36 2.38 0 0 Z " fill="#D8F4E2" transform="translate(252,249)"/>
<path d="M0 0 C2.31 0 4.62 0 7 0 C7.33 0.99 7.66 1.98 8 3 C5.688 3.688 5.688 3.688 3 4 C1.188 2.625 1.188 2.625 0 1 C0 0.67 0 0.34 0 0 Z " fill="#8DE562" transform="translate(422,249)"/>
<path d="M0 0 C3 1 3 1 4.25 3.312 C5.028 6.099 4.987 7.334 4 10 C0.4 4.6 0.4 4.6 -1 2 C-0.67 1.34 -0.34 0.68 0 0 Z " fill="#71A284" transform="translate(473,228)"/>
<path d="M0 0 C-5.445 2.475 -5.445 2.475 -11 5 C-11.33 4.01 -11.66 3.02 -12 2 C-10.567 1.468 -9.128 0.95 -7.688 0.438 C-6.887 0.147 -6.086 -0.143 -5.262 -0.441 C-3 -1 -3 -1 0 0 Z " fill="#73A486" transform="translate(436,230)"/>
<path d="M0 0 C1.32 0.66 2.64 1.32 4 2 C2.25 6.875 2.25 6.875 0 8 C-0.381 5.674 -0.713 3.339 -1 1 C-0.67 0.67 -0.34 0.34 0 0 Z " fill="#5BA678" transform="translate(358,295)"/>
<path d="M0 0 C2.938 0.75 2.938 0.75 6 2 C6.938 4 6.938 4 7 6 C6.67 6.66 6.34 7.32 6 8 C5.34 8 4.68 8 4 8 C2.68 5.36 1.36 2.72 0 0 Z " fill="#6AA481" transform="translate(374,231)"/>
<path d="M0 0 C2 2 2 2 2.125 4.625 C2.084 5.409 2.043 6.192 2 7 C1.01 7.33 0.02 7.66 -1 8 C-1.33 8.99 -1.66 9.98 -2 11 C-1.125 3.375 -1.125 3.375 0 0 Z " fill="#7AAC8F" transform="translate(331,307)"/>
<path d="M0 0 C0.188 3.375 0.188 3.375 0 7 C-1.485 7.99 -1.485 7.99 -3 9 C-3 6.36 -3 3.72 -3 1 C-1 0 -1 0 0 0 Z " fill="#58A67A" transform="translate(306,313)"/>
<path d="M0 0 C1.98 0.495 1.98 0.495 4 1 C3 5 3 5 2 9 C1.34 8.67 0.68 8.34 0 8 C0.33 6.35 0.66 4.7 1 3 C0.34 2.67 -0.32 2.34 -1 2 C-0.67 1.34 -0.34 0.68 0 0 Z " fill="#5BA378" transform="translate(362,301)"/>
<path d="M0 0 C1.562 1 1.562 1 3 3 C2.967 5.766 2.494 8.26 2 11 C0.438 10 0.438 10 -1 8 C-0.967 5.234 -0.494 2.74 0 0 Z " fill="#D1EFD9" transform="translate(331,292)"/>
<path d="M0 0 C0.66 0.33 1.32 0.66 2 1 C1.453 4.375 0.945 6.082 -1 9 C-1.66 6.36 -2.32 3.72 -3 1 C-2.01 0.67 -1.02 0.34 0 0 Z " fill="#5DA67B" transform="translate(293,292)"/>
<path d="M0 0 C0.99 0.66 1.98 1.32 3 2 C1.188 4 1.188 4 -1 6 C-1.99 6 -2.98 6 -4 6 C-2.25 1.125 -2.25 1.125 0 0 Z " fill="#74A684" transform="translate(395,285)"/>
<path d="M0 0 C3.688 0.498 5.605 1.101 8 4 C7.67 4.99 7.34 5.98 7 7 C6.34 6.67 5.68 6.34 5 6 C5 5.34 5 4.68 5 4 C2.525 3.01 2.525 3.01 0 2 C0 1.34 0 0.68 0 0 Z " fill="#6FA583" transform="translate(407,248)"/>
<path d="M0 0 C0.33 0.99 0.66 1.98 1 3 C-0.938 5.688 -0.938 5.688 -3 8 C-3.66 7.67 -4.32 7.34 -5 7 C-3.75 3.347 -3.329 2.219 0 0 Z " fill="#E3F6E6" transform="translate(262,236)"/>
<path d="M0 0 C0 0.66 0 1.32 0 2 C-0.66 2 -1.32 2 -2 2 C-2.33 2.99 -2.66 3.98 -3 5 C-4.98 5 -6.96 5 -9 5 C-6.455 2.201 -3.924 0 0 0 Z " fill="#A2D683" transform="translate(432,235)"/>
<path d="M0 0 C2.475 0.99 2.475 0.99 5 2 C4.67 3.32 4.34 4.64 4 6 C2.35 5.67 0.7 5.34 -1 5 C-0.67 3.35 -0.34 1.7 0 0 Z " fill="#6FA585" transform="translate(362,222)"/>
<path d="M0 0 C2.938 0.75 2.938 0.75 6 2 C6.875 4.125 6.875 4.125 7 6 C4.028 4.875 1.666 3.777 -1 2 C-0.67 1.34 -0.34 0.68 0 0 Z " fill="#DEFBE9" transform="translate(342,222)"/>
<path d="M0 0 C1.226 0.153 1.226 0.153 2.477 0.309 C3.416 0.434 3.416 0.434 4.375 0.562 C4.375 0.893 4.375 1.222 4.375 1.562 C0.745 1.893 -2.885 2.222 -6.625 2.562 C-6.625 1.903 -6.625 1.243 -6.625 0.562 C-4.104 -0.698 -2.771 -0.356 0 0 Z " fill="#ECFDF1" transform="translate(379.625,221.4375)"/>
<path d="M0 0 C0.66 0.33 1.32 0.66 2 1 C1.34 2.98 0.68 4.96 0 7 C-0.99 7 -1.98 7 -3 7 C-2.625 4.062 -2.625 4.062 -2 1 C-1.34 0.67 -0.68 0.34 0 0 Z " fill="#DEF6E2" transform="translate(345,325)"/>
<path d="M0 0 C2.475 0.495 2.475 0.495 5 1 C4.398 3.02 3.727 5.021 3 7 C2.01 7.495 2.01 7.495 1 8 C1.33 6.68 1.66 5.36 2 4 C1.34 4 0.68 4 0 4 C0 2.68 0 1.36 0 0 Z " fill="#59A576" transform="translate(433,328)"/>
<path d="M0 0 C3.375 0.547 5.082 1.055 8 3 C7.01 3.66 6.02 4.32 5 5 C2.5 3.625 2.5 3.625 0 2 C0 1.34 0 0.68 0 0 Z " fill="#D4F3DD" transform="translate(386,326)"/>
<path d="M0 0 C1.485 0.99 1.485 0.99 3 2 C5.646 1.688 5.646 1.688 8 1 C7.67 1.99 7.34 2.98 7 4 C6.34 3.67 5.68 3.34 5 3 C4.67 3.66 4.34 4.32 4 5 C2.68 5 1.36 5 0 5 C0 3.35 0 1.7 0 0 Z " fill="#61A177" transform="translate(353,309)"/>
<path d="M0 0 C0.99 0 1.98 0 3 0 C2.67 2.31 2.34 4.62 2 7 C1.01 7.33 0.02 7.66 -1 8 C-0.67 5.36 -0.34 2.72 0 0 Z " fill="#5AA776" transform="translate(294,304)"/>
<path d="M0 0 C0.33 0.99 0.66 1.98 1 3 C-3.625 7 -3.625 7 -7 7 C-6.67 6.01 -6.34 5.02 -6 4 C-4.68 4 -3.36 4 -2 4 C-1.34 2.68 -0.68 1.36 0 0 Z " fill="#A2D57F" transform="translate(471,256)"/>
<path d="M0 0 C0.66 1.32 1.32 2.64 2 4 C0.625 7.25 0.625 7.25 -1 10 C-1.66 9.67 -2.32 9.34 -3 9 C-2.01 6.03 -1.02 3.06 0 0 Z " fill="#E4F9EB" transform="translate(397,256)"/>
<path d="M0 0 C-0.33 0.99 -0.66 1.98 -1 3 C-1.66 3 -2.32 3 -3 3 C-3 3.66 -3 4.32 -3 5 C-3.99 5.33 -4.98 5.66 -6 6 C-6.66 5.34 -7.32 4.68 -8 4 C-2.25 0 -2.25 0 0 0 Z " fill="#E2F8E0" transform="translate(421,238)"/>
<path d="M0 0 C1.562 1.062 1.562 1.062 3 3 C2.688 6.688 2.688 6.688 2 10 C1.67 8.68 1.34 7.36 1 6 C0.01 6 -0.98 6 -2 6 C-2 5.34 -2 4.68 -2 4 C-1.34 4 -0.68 4 0 4 C0 2.68 0 1.36 0 0 Z " fill="#D3EADE" transform="translate(325,320)"/>
<path d="M0 0 C0.66 0 1.32 0 2 0 C3.478 2.957 3.06 5.742 3 9 C2.34 8.67 1.68 8.34 1 8 C0.406 5.351 0.258 2.708 0 0 Z " fill="#F0FBEF" transform="translate(318,312)"/>
<path d="M0 0 C2.094 3.402 2.179 6.053 2 10 C1.34 10 0.68 10 0 10 C-0.749 6.337 -1.238 3.576 0 0 Z " fill="#E0F6EC" transform="translate(315,295)"/>
<path d="M0 0 C0 0.66 0 1.32 0 2 C-1.65 2.33 -3.3 2.66 -5 3 C-5 2.34 -5 1.68 -5 1 C-5.99 0.67 -6.98 0.34 -8 0 C-4.71 -1.097 -3.287 -0.8 0 0 Z " fill="#6AA482" transform="translate(471,267)"/>
<path d="M0 0 C-5.625 3 -5.625 3 -9 3 C-9 2.01 -9 1.02 -9 0 C-3.375 -1.125 -3.375 -1.125 0 0 Z " fill="#78A284" transform="translate(347,243)"/>
<path d="M0 0 C3.15 3.423 3.562 6.443 4 11 C3.67 10.01 3.34 9.02 3 8 C2.34 8 1.68 8 1 8 C0.67 5.36 0.34 2.72 0 0 Z " fill="#A4DA89" transform="translate(470,232)"/>
<path d="M0 0 C-1 1 -1 1 -3.066 1.098 C-3.89 1.086 -4.714 1.074 -5.562 1.062 C-6.389 1.053 -7.215 1.044 -8.066 1.035 C-8.704 1.024 -9.343 1.012 -10 1 C-9.67 0.34 -9.34 -0.32 -9 -1 C-5.268 -2.21 -3.32 -2.09 0 0 Z " fill="#90E16A" transform="translate(464,231)"/>
<path d="M0 0 C0.66 0.66 1.32 1.32 2 2 C0.812 3.562 0.812 3.562 -1 5 C-3.688 4.688 -3.688 4.688 -6 4 C-4.036 2.494 -2.217 1.109 0 0 Z " fill="#70A989" transform="translate(414,329)"/>
<path d="M0 0 C-0.33 0.99 -0.66 1.98 -1 3 C-4.3 3 -7.6 3 -11 3 C-11 2.67 -11 2.34 -11 2 C-3.375 0 -3.375 0 0 0 Z " fill="#EEFDF3" transform="translate(411,329)"/>
<path d="M0 0 C0.33 0.99 0.66 1.98 1 3 C-0.312 5.188 -0.312 5.188 -2 7 C-2.66 7 -3.32 7 -4 7 C-4.33 5.35 -4.66 3.7 -5 2 C-3.68 2 -2.36 2 -1 2 C-0.67 1.34 -0.34 0.68 0 0 Z " fill="#64A77D" transform="translate(319,288)"/>
<path d="M0 0 C1.984 2.917 1.988 4.124 1.625 7.75 C1.419 8.822 1.212 9.895 1 11 C0.67 11 0.34 11 0 11 C0 9.02 0 7.04 0 5 C-0.66 5 -1.32 5 -2 5 C-1.34 3.35 -0.68 1.7 0 0 Z " fill="#CAE9D4" transform="translate(390,285)"/>
<path d="M0 0 C1.32 1.65 2.64 3.3 4 5 C3.67 5.66 3.34 6.32 3 7 C2.01 6.67 1.02 6.34 0 6 C-0.382 4.344 -0.714 2.675 -1 1 C-0.67 0.67 -0.34 0.34 0 0 Z " fill="#D8F5E3" transform="translate(394,267)"/>
<path d="M0 0 C-0.33 2.31 -0.66 4.62 -1 7 C-2.32 6.34 -3.64 5.68 -5 5 C-5 4.34 -5 3.68 -5 3 C-1.423 0 -1.423 0 0 0 Z " fill="#67AA81" transform="translate(351,256)"/>
<path d="M0 0 C3.375 0.547 5.082 1.055 8 3 C8 3.66 8 4.32 8 5 C6.35 4.67 4.7 4.34 3 4 C2.67 3.01 2.34 2.02 2 1 C1.34 0.67 0.68 0.34 0 0 Z " fill="#EBFCE4" transform="translate(416,251)"/>
<path d="M0 0 C1.32 0.33 2.64 0.66 4 1 C2.68 2.65 1.36 4.3 0 6 C-0.99 5.67 -1.98 5.34 -3 5 C-2.01 3.35 -1.02 1.7 0 0 Z " fill="#6DA581" transform="translate(258,245)"/>
<path d="M0 0 C2.325 2.853 3.751 5.541 5 9 C4.01 9.495 4.01 9.495 3 10 C0.592 6.488 -0.366 4.273 0 0 Z " fill="#7AA88B" transform="translate(376,241)"/>
<path d="M0 0 C0.99 0.33 1.98 0.66 3 1 C1.891 3.217 0.506 5.036 -1 7 C-1.99 6.67 -2.98 6.34 -4 6 C-2.68 4.02 -1.36 2.04 0 0 Z " fill="#70A384" transform="translate(266,233)"/>
<path d="M0 0 C0.99 0.33 1.98 0.66 3 1 C2.67 1.99 2.34 2.98 2 4 C-0.062 4.688 -0.062 4.688 -2 5 C-2 3.68 -2 2.36 -2 1 C-1.34 0.67 -0.68 0.34 0 0 Z " fill="#689F78" transform="translate(375,224)"/>
<path d="M0 0 C1.648 2.967 2.443 5.656 3 9 C2.01 9.495 2.01 9.495 1 10 C0.637 8.711 0.285 7.418 -0.062 6.125 C-0.358 5.046 -0.358 5.046 -0.66 3.945 C-1 2 -1 2 0 0 Z " fill="#70A287" transform="translate(376,316)"/>
<path d="M0 0 C0.33 1.32 0.66 2.64 1 4 C1.66 4 2.32 4 3 4 C3 5.98 3 7.96 3 10 C2.34 10 1.68 10 1 10 C0.67 6.7 0.34 3.4 0 0 Z " fill="#68A181" transform="translate(322,314)"/>
<path d="M0 0 C2 0.25 2 0.25 4 1 C4.33 1.99 4.66 2.98 5 4 C4.01 4.33 3.02 4.66 2 5 C1.01 3.68 0.02 2.36 -1 1 C-0.67 0.67 -0.34 0.34 0 0 Z " fill="#D9F3E2" transform="translate(411,310)"/>
<path d="M0 0 C1.125 1.688 1.125 1.688 2 4 C1.125 6.75 1.125 6.75 0 9 C-0.66 8.01 -1.32 7.02 -2 6 C-1.125 2.812 -1.125 2.812 0 0 Z " fill="#68A47C" transform="translate(371,296)"/>
<path d="M0 0 C1.32 0 2.64 0 4 0 C3.67 1.65 3.34 3.3 3 5 C2.01 5 1.02 5 0 5 C0 3.35 0 1.7 0 0 Z " fill="#56A977" transform="translate(290,288)"/>
<path d="M0 0 C1.765 3.088 2 4.233 2 8 C1.01 7.67 0.02 7.34 -1 7 C-1.625 4.625 -1.625 4.625 -2 2 C-1.34 1.34 -0.68 0.68 0 0 Z " fill="#E2F8E8" transform="translate(363,252)"/>
<path d="M0 0 C0.99 0 1.98 0 3 0 C3 1.98 3 3.96 3 6 C2.01 6 1.02 6 0 6 C0 4.02 0 2.04 0 0 Z " fill="#97DC72" transform="translate(470,250)"/>
<path d="M0 0 C1.892 2.386 3.024 4.072 4 7 C2.68 7 1.36 7 0 7 C0 4.69 0 2.38 0 0 Z " fill="#56A979" transform="translate(371,328)"/>
<path d="M0 0 C2.31 0.33 4.62 0.66 7 1 C5.515 2.485 5.515 2.485 4 4 C2.68 3.34 1.36 2.68 0 2 C0 1.34 0 0.68 0 0 Z " fill="#E2F9EA" transform="translate(400,305)"/>
<path d="M0 0 C0.66 0.33 1.32 0.66 2 1 C1.67 3.31 1.34 5.62 1 8 C0.01 8 -0.98 8 -2 8 C-1.34 5.36 -0.68 2.72 0 0 Z " fill="#74B08D" transform="translate(306,300)"/>
<path d="M0 0 C0.66 0.99 1.32 1.98 2 3 C1.125 6.688 1.125 6.688 0 10 C-1.125 8.375 -1.125 8.375 -2 6 C-1.125 2.75 -1.125 2.75 0 0 Z " fill="#78A889" transform="translate(356,298)"/>
<path d="M0 0 C1.32 0 2.64 0 4 0 C5.062 1.875 5.062 1.875 6 4 C5.67 4.66 5.34 5.32 5 6 C4.01 5.67 3.02 5.34 2 5 C2.33 4.01 2.66 3.02 3 2 C2.01 2 1.02 2 0 2 C0 1.34 0 0.68 0 0 Z " fill="#66AA81" transform="translate(394,273)"/>
<path d="M0 0 C0.99 0 1.98 0 3 0 C3.33 1.32 3.66 2.64 4 4 C2.515 4.99 2.515 4.99 1 6 C0.67 4.02 0.34 2.04 0 0 Z " fill="#DCF4E3" transform="translate(342,256)"/>
<path d="M0 0 C0.99 0.33 1.98 0.66 3 1 C3 2.32 3 3.64 3 5 C3.66 5.33 4.32 5.66 5 6 C3.68 6 2.36 6 1 6 C1 5.01 1 4.02 1 3 C0.34 3 -0.32 3 -1 3 C-0.67 2.01 -0.34 1.02 0 0 Z " fill="#99DC6D" transform="translate(465,237)"/>
<path d="M0 0 C2 3 2 3 1.625 6.188 C1.419 7.116 1.212 8.044 1 9 C0.01 8.34 -0.98 7.68 -2 7 C-1.34 4.69 -0.68 2.38 0 0 Z " fill="#DDF8E6" transform="translate(363,231)"/>
<path d="M0 0 C1.65 0.33 3.3 0.66 5 1 C5 2.65 5 4.3 5 6 C3.02 5.01 1.04 4.02 -1 3 C-0.67 2.01 -0.34 1.02 0 0 Z " fill="#77A98B" transform="translate(467,224)"/>
</svg>